<mxfile host="app.diagrams.net" modified="2023-05-08T19:12:24.389Z" agent="Mozilla/5.0 (Macintosh; Intel Mac OS X 10_15_7) AppleWebKit/537.36 (KHTML, like Gecko) Chrome/112.0.0.0 Safari/537.36" etag="nQIk0Fsqkb5tMXxVPmAf" version="21.2.9" type="device">
  <diagram name="Page-1" id="2YBvvXClWsGukQMizWep">
    <mxGraphModel dx="1306" dy="1936" grid="1" gridSize="10" guides="1" tooltips="1" connect="1" arrows="1" fold="1" page="1" pageScale="1" pageWidth="850" pageHeight="1100" math="0" shadow="0">
      <root>
        <mxCell id="0" />
        <mxCell id="1" parent="0" />
        <mxCell id="HS1r75xV8W8orcubCvqb-277" value="" style="group;movable=1;resizable=1;rotatable=1;deletable=1;editable=1;locked=0;connectable=1;" parent="1" vertex="1" connectable="0">
          <mxGeometry x="120" y="-51.25" width="1222.5" height="910" as="geometry" />
        </mxCell>
        <mxCell id="HS1r75xV8W8orcubCvqb-6" value="" style="rounded=0;whiteSpace=wrap;html=1;fillColor=#A9C4EB;movable=1;resizable=1;rotatable=1;deletable=1;editable=1;locked=0;connectable=1;" parent="HS1r75xV8W8orcubCvqb-277" vertex="1">
          <mxGeometry x="57.5" y="322" width="510" height="250" as="geometry" />
        </mxCell>
        <mxCell id="HS1r75xV8W8orcubCvqb-5" value="" style="rounded=0;whiteSpace=wrap;html=1;fillColor=#F19C99;movable=1;resizable=1;rotatable=1;deletable=1;editable=1;locked=0;connectable=1;" parent="HS1r75xV8W8orcubCvqb-277" vertex="1">
          <mxGeometry x="57.5" y="150" width="510" height="170" as="geometry" />
        </mxCell>
        <mxCell id="HS1r75xV8W8orcubCvqb-1" value="" style="rounded=0;whiteSpace=wrap;html=1;fillColor=#ADADAD;movable=1;resizable=1;rotatable=1;deletable=1;editable=1;locked=0;connectable=1;" parent="HS1r75xV8W8orcubCvqb-277" vertex="1">
          <mxGeometry x="57.5" width="510" height="150" as="geometry" />
        </mxCell>
        <mxCell id="HS1r75xV8W8orcubCvqb-4" value="Scaling" style="rounded=1;whiteSpace=wrap;html=1;rotation=-90;movable=1;resizable=1;rotatable=1;deletable=1;editable=1;locked=0;connectable=1;" parent="HS1r75xV8W8orcubCvqb-277" vertex="1">
          <mxGeometry x="7.5000000000000036" y="65" width="120" height="20" as="geometry" />
        </mxCell>
        <mxCell id="HS1r75xV8W8orcubCvqb-7" value="" style="rounded=0;whiteSpace=wrap;html=1;fillColor=#dae8fc;strokeColor=#6c8ebf;movable=1;resizable=1;rotatable=1;deletable=1;editable=1;locked=0;connectable=1;" parent="HS1r75xV8W8orcubCvqb-277" vertex="1">
          <mxGeometry x="57.5" y="570" width="510" height="130" as="geometry" />
        </mxCell>
        <mxCell id="HS1r75xV8W8orcubCvqb-8" value="" style="rounded=0;whiteSpace=wrap;html=1;fillColor=#E8E8E8;movable=1;resizable=1;rotatable=1;deletable=1;editable=1;locked=0;connectable=1;" parent="HS1r75xV8W8orcubCvqb-277" vertex="1">
          <mxGeometry x="57.5" y="700" width="510" height="210" as="geometry" />
        </mxCell>
        <mxCell id="HS1r75xV8W8orcubCvqb-9" value="Search" style="rounded=1;whiteSpace=wrap;html=1;rotation=-90;movable=1;resizable=1;rotatable=1;deletable=1;editable=1;locked=0;connectable=1;" parent="HS1r75xV8W8orcubCvqb-277" vertex="1">
          <mxGeometry x="7.5000000000000036" y="625" width="120" height="20" as="geometry" />
        </mxCell>
        <mxCell id="HS1r75xV8W8orcubCvqb-10" value="Stratified CV" style="rounded=1;whiteSpace=wrap;html=1;rotation=-90;movable=1;resizable=1;rotatable=1;deletable=1;editable=1;locked=0;connectable=1;" parent="HS1r75xV8W8orcubCvqb-277" vertex="1">
          <mxGeometry x="7.5000000000000036" y="435" width="120" height="20" as="geometry" />
        </mxCell>
        <mxCell id="HS1r75xV8W8orcubCvqb-11" value="Feature Selection" style="rounded=1;whiteSpace=wrap;html=1;rotation=-90;movable=1;resizable=1;rotatable=1;deletable=1;editable=1;locked=0;connectable=1;" parent="HS1r75xV8W8orcubCvqb-277" vertex="1">
          <mxGeometry x="7.5000000000000036" y="215" width="120" height="20" as="geometry" />
        </mxCell>
        <mxCell id="HS1r75xV8W8orcubCvqb-12" value="Single Trial Results" style="rounded=1;whiteSpace=wrap;html=1;rotation=-90;movable=1;resizable=1;rotatable=1;deletable=1;editable=1;locked=0;connectable=1;" parent="HS1r75xV8W8orcubCvqb-277" vertex="1">
          <mxGeometry x="7.5000000000000036" y="795" width="120" height="20" as="geometry" />
        </mxCell>
        <mxCell id="HS1r75xV8W8orcubCvqb-34" value="" style="group;movable=1;resizable=1;rotatable=1;deletable=1;editable=1;locked=0;connectable=1;" parent="HS1r75xV8W8orcubCvqb-277" vertex="1" connectable="0">
          <mxGeometry x="127.5" y="20" width="359" height="100" as="geometry" />
        </mxCell>
        <mxCell id="HS1r75xV8W8orcubCvqb-20" value="Column Transformer" style="swimlane;whiteSpace=wrap;html=1;movable=1;resizable=1;rotatable=1;deletable=1;editable=1;locked=0;connectable=1;" parent="HS1r75xV8W8orcubCvqb-34" vertex="1">
          <mxGeometry x="129" width="100" height="100" as="geometry" />
        </mxCell>
        <mxCell id="HS1r75xV8W8orcubCvqb-21" value="cols_to_scale=[]" style="text;html=1;strokeColor=none;fillColor=none;align=center;verticalAlign=middle;whiteSpace=wrap;rounded=0;movable=1;resizable=1;rotatable=1;deletable=1;editable=1;locked=0;connectable=1;" parent="HS1r75xV8W8orcubCvqb-20" vertex="1">
          <mxGeometry x="5" y="19" width="90" height="30" as="geometry" />
        </mxCell>
        <mxCell id="HS1r75xV8W8orcubCvqb-22" value="MinMax Scaler" style="rounded=1;whiteSpace=wrap;html=1;movable=1;resizable=1;rotatable=1;deletable=1;editable=1;locked=0;connectable=1;" parent="HS1r75xV8W8orcubCvqb-20" vertex="1">
          <mxGeometry x="10" y="46" width="80" height="45" as="geometry" />
        </mxCell>
        <mxCell id="HS1r75xV8W8orcubCvqb-32" value="" style="group;movable=1;resizable=1;rotatable=1;deletable=1;editable=1;locked=0;connectable=1;" parent="HS1r75xV8W8orcubCvqb-34" vertex="1" connectable="0">
          <mxGeometry x="259" width="100" height="100" as="geometry" />
        </mxCell>
        <mxCell id="HS1r75xV8W8orcubCvqb-23" value="Column Transformer" style="swimlane;whiteSpace=wrap;html=1;movable=1;resizable=1;rotatable=1;deletable=1;editable=1;locked=0;connectable=1;" parent="HS1r75xV8W8orcubCvqb-32" vertex="1">
          <mxGeometry width="100" height="100" as="geometry" />
        </mxCell>
        <mxCell id="HS1r75xV8W8orcubCvqb-24" value="cols_to_scale=[]" style="text;html=1;strokeColor=none;fillColor=none;align=center;verticalAlign=middle;whiteSpace=wrap;rounded=0;movable=1;resizable=1;rotatable=1;deletable=1;editable=1;locked=0;connectable=1;" parent="HS1r75xV8W8orcubCvqb-23" vertex="1">
          <mxGeometry x="5" y="19" width="90" height="30" as="geometry" />
        </mxCell>
        <mxCell id="HS1r75xV8W8orcubCvqb-25" value="Robust Scaler" style="rounded=1;whiteSpace=wrap;html=1;movable=1;resizable=1;rotatable=1;deletable=1;editable=1;locked=0;connectable=1;" parent="HS1r75xV8W8orcubCvqb-32" vertex="1">
          <mxGeometry x="10" y="46" width="80" height="45" as="geometry" />
        </mxCell>
        <mxCell id="HS1r75xV8W8orcubCvqb-33" value="" style="group;movable=1;resizable=1;rotatable=1;deletable=1;editable=1;locked=0;connectable=1;" parent="HS1r75xV8W8orcubCvqb-34" vertex="1" connectable="0">
          <mxGeometry width="100" height="100" as="geometry" />
        </mxCell>
        <mxCell id="HS1r75xV8W8orcubCvqb-13" value="Column Transformer" style="swimlane;whiteSpace=wrap;html=1;movable=1;resizable=1;rotatable=1;deletable=1;editable=1;locked=0;connectable=1;" parent="HS1r75xV8W8orcubCvqb-33" vertex="1">
          <mxGeometry width="100" height="100" as="geometry" />
        </mxCell>
        <mxCell id="HS1r75xV8W8orcubCvqb-16" value="cols_to_scale=[]" style="text;html=1;strokeColor=none;fillColor=none;align=center;verticalAlign=middle;whiteSpace=wrap;rounded=0;movable=1;resizable=1;rotatable=1;deletable=1;editable=1;locked=0;connectable=1;" parent="HS1r75xV8W8orcubCvqb-13" vertex="1">
          <mxGeometry x="5" y="19" width="90" height="30" as="geometry" />
        </mxCell>
        <mxCell id="HS1r75xV8W8orcubCvqb-17" value="Standard Scaler" style="rounded=1;whiteSpace=wrap;html=1;movable=1;resizable=1;rotatable=1;deletable=1;editable=1;locked=0;connectable=1;" parent="HS1r75xV8W8orcubCvqb-33" vertex="1">
          <mxGeometry x="11" y="45" width="80" height="45" as="geometry" />
        </mxCell>
        <mxCell id="HS1r75xV8W8orcubCvqb-47" value="" style="group;movable=1;resizable=1;rotatable=1;deletable=1;editable=1;locked=0;connectable=1;" parent="HS1r75xV8W8orcubCvqb-277" vertex="1" connectable="0">
          <mxGeometry x="179.5" y="120" width="255" height="57" as="geometry" />
        </mxCell>
        <mxCell id="HS1r75xV8W8orcubCvqb-38" value="" style="strokeWidth=2;html=1;shape=mxgraph.flowchart.annotation_2;align=left;labelPosition=right;pointerEvents=1;rotation=-90;movable=1;resizable=1;rotatable=1;deletable=1;editable=1;locked=0;connectable=1;" parent="HS1r75xV8W8orcubCvqb-47" vertex="1">
          <mxGeometry x="99" y="-99" width="57" height="255" as="geometry" />
        </mxCell>
        <mxCell id="HS1r75xV8W8orcubCvqb-46" value="" style="line;strokeWidth=2;rotatable=1;dashed=0;labelPosition=right;align=left;verticalAlign=middle;spacingTop=0;spacingLeft=6;points=[];portConstraint=eastwest;direction=south;movable=1;resizable=1;deletable=1;editable=1;locked=0;connectable=1;" parent="HS1r75xV8W8orcubCvqb-47" vertex="1">
          <mxGeometry x="122.5" y="0.5" width="10" height="29.5" as="geometry" />
        </mxCell>
        <mxCell id="HS1r75xV8W8orcubCvqb-48" value="Feature Selection" style="rounded=1;whiteSpace=wrap;html=1;movable=1;resizable=1;rotatable=1;deletable=1;editable=1;locked=0;connectable=1;" parent="HS1r75xV8W8orcubCvqb-277" vertex="1">
          <mxGeometry x="247" y="177" width="120" height="25" as="geometry" />
        </mxCell>
        <mxCell id="HS1r75xV8W8orcubCvqb-92" value="" style="group;movable=1;resizable=1;rotatable=1;deletable=1;editable=1;locked=0;connectable=1;" parent="HS1r75xV8W8orcubCvqb-277" vertex="1" connectable="0">
          <mxGeometry x="277.5" y="220" width="290" height="60" as="geometry" />
        </mxCell>
        <mxCell id="HS1r75xV8W8orcubCvqb-91" value="" style="rounded=1;whiteSpace=wrap;html=1;fillColor=none;movable=1;resizable=1;rotatable=1;deletable=1;editable=1;locked=0;connectable=1;" parent="HS1r75xV8W8orcubCvqb-92" vertex="1">
          <mxGeometry width="290" height="60" as="geometry" />
        </mxCell>
        <mxCell id="HS1r75xV8W8orcubCvqb-87" value="" style="group;movable=1;resizable=1;rotatable=1;deletable=1;editable=1;locked=0;connectable=1;" parent="HS1r75xV8W8orcubCvqb-92" vertex="1" connectable="0">
          <mxGeometry y="15" width="290" height="30" as="geometry" />
        </mxCell>
        <mxCell id="HS1r75xV8W8orcubCvqb-79" value="ExtraTrees" style="rounded=1;whiteSpace=wrap;html=1;movable=1;resizable=1;rotatable=1;deletable=1;editable=1;locked=0;connectable=1;" parent="HS1r75xV8W8orcubCvqb-87" vertex="1">
          <mxGeometry width="90" height="30" as="geometry" />
        </mxCell>
        <mxCell id="HS1r75xV8W8orcubCvqb-83" value="SVC" style="rounded=1;whiteSpace=wrap;html=1;movable=1;resizable=1;rotatable=1;deletable=1;editable=1;locked=0;connectable=1;" parent="HS1r75xV8W8orcubCvqb-87" vertex="1">
          <mxGeometry x="100" width="90" height="30" as="geometry" />
        </mxCell>
        <mxCell id="HS1r75xV8W8orcubCvqb-86" value="Custom" style="rounded=1;whiteSpace=wrap;html=1;movable=1;resizable=1;rotatable=1;deletable=1;editable=1;locked=0;connectable=1;" parent="HS1r75xV8W8orcubCvqb-87" vertex="1">
          <mxGeometry x="200" width="90" height="30" as="geometry" />
        </mxCell>
        <mxCell id="HS1r75xV8W8orcubCvqb-100" value="" style="endArrow=classic;html=1;rounded=0;exitX=0;exitY=0.5;exitDx=0;exitDy=0;entryX=1;entryY=0;entryDx=0;entryDy=0;entryPerimeter=0;movable=1;resizable=1;rotatable=1;deletable=1;editable=1;locked=0;connectable=1;" parent="HS1r75xV8W8orcubCvqb-277" source="HS1r75xV8W8orcubCvqb-48" target="HS1r75xV8W8orcubCvqb-98" edge="1">
          <mxGeometry relative="1" as="geometry">
            <mxPoint x="347.5" y="360" as="sourcePoint" />
            <mxPoint x="447.5" y="360" as="targetPoint" />
            <Array as="points">
              <mxPoint x="185.5" y="190" />
            </Array>
          </mxGeometry>
        </mxCell>
        <mxCell id="HS1r75xV8W8orcubCvqb-104" value="No" style="edgeLabel;html=1;align=center;verticalAlign=middle;resizable=1;points=[];movable=1;rotatable=1;deletable=1;editable=1;locked=0;connectable=1;" parent="HS1r75xV8W8orcubCvqb-100" vertex="1" connectable="0">
          <mxGeometry x="-0.5709" y="1" relative="1" as="geometry">
            <mxPoint as="offset" />
          </mxGeometry>
        </mxCell>
        <mxCell id="HS1r75xV8W8orcubCvqb-102" value="" style="endArrow=classic;html=1;rounded=0;entryX=0.569;entryY=-0.025;entryDx=0;entryDy=0;entryPerimeter=0;movable=1;resizable=1;rotatable=1;deletable=1;editable=1;locked=0;connectable=1;" parent="HS1r75xV8W8orcubCvqb-277" target="HS1r75xV8W8orcubCvqb-91" edge="1">
          <mxGeometry relative="1" as="geometry">
            <mxPoint x="367" y="189" as="sourcePoint" />
            <mxPoint x="467" y="189" as="targetPoint" />
            <Array as="points">
              <mxPoint x="442.5" y="190" />
            </Array>
          </mxGeometry>
        </mxCell>
        <mxCell id="HS1r75xV8W8orcubCvqb-103" value="Yes" style="edgeLabel;resizable=1;html=1;align=center;verticalAlign=middle;movable=1;rotatable=1;deletable=1;editable=1;locked=0;connectable=1;" parent="HS1r75xV8W8orcubCvqb-102" connectable="0" vertex="1">
          <mxGeometry relative="1" as="geometry" />
        </mxCell>
        <mxCell id="HS1r75xV8W8orcubCvqb-218" value="Test" style="text;html=1;strokeColor=none;fillColor=none;align=center;verticalAlign=middle;whiteSpace=wrap;rounded=0;movable=1;resizable=1;rotatable=1;deletable=1;editable=1;locked=0;connectable=1;" parent="HS1r75xV8W8orcubCvqb-277" vertex="1">
          <mxGeometry x="207.5" y="330" width="60" height="30" as="geometry" />
        </mxCell>
        <mxCell id="HS1r75xV8W8orcubCvqb-227" value="" style="group;movable=1;resizable=1;rotatable=1;deletable=1;editable=1;locked=0;connectable=1;" parent="HS1r75xV8W8orcubCvqb-277" vertex="1" connectable="0">
          <mxGeometry x="158.5" y="548" width="339" height="152" as="geometry" />
        </mxCell>
        <mxCell id="HS1r75xV8W8orcubCvqb-224" value="" style="strokeWidth=2;html=1;shape=mxgraph.flowchart.annotation_2;align=left;labelPosition=right;pointerEvents=1;rotation=-90;direction=west;movable=1;resizable=1;rotatable=1;deletable=1;editable=1;locked=0;connectable=1;" parent="HS1r75xV8W8orcubCvqb-227" vertex="1">
          <mxGeometry x="137" y="-103" width="65" height="255" as="geometry" />
        </mxCell>
        <mxCell id="HS1r75xV8W8orcubCvqb-225" value="Random Search" style="rounded=1;whiteSpace=wrap;html=1;movable=1;resizable=1;rotatable=1;deletable=1;editable=1;locked=0;connectable=1;" parent="HS1r75xV8W8orcubCvqb-227" vertex="1">
          <mxGeometry y="57" width="141" height="60" as="geometry" />
        </mxCell>
        <mxCell id="HS1r75xV8W8orcubCvqb-226" value="Bayesian Optimization w/ TPE" style="rounded=1;whiteSpace=wrap;html=1;movable=1;resizable=1;rotatable=1;deletable=1;editable=1;locked=0;connectable=1;" parent="HS1r75xV8W8orcubCvqb-227" vertex="1">
          <mxGeometry x="198" y="57" width="141" height="60" as="geometry" />
        </mxCell>
        <mxCell id="HS1r75xV8W8orcubCvqb-438" value="" style="endArrow=none;html=1;rounded=0;strokeWidth=2;" parent="HS1r75xV8W8orcubCvqb-227" edge="1">
          <mxGeometry width="50" height="50" relative="1" as="geometry">
            <mxPoint x="41.5" y="39.5" as="sourcePoint" />
            <mxPoint x="41.5" y="9.5" as="targetPoint" />
          </mxGeometry>
        </mxCell>
        <mxCell id="HS1r75xV8W8orcubCvqb-228" value="" style="strokeWidth=2;html=1;shape=mxgraph.flowchart.annotation_2;align=left;labelPosition=right;pointerEvents=1;rotation=-90;direction=east;movable=1;resizable=1;rotatable=1;deletable=1;editable=1;locked=0;connectable=1;" parent="HS1r75xV8W8orcubCvqb-277" vertex="1">
          <mxGeometry x="292.5" y="572" width="67" height="255" as="geometry" />
        </mxCell>
        <mxCell id="HS1r75xV8W8orcubCvqb-240" value="" style="group;movable=1;resizable=1;rotatable=1;deletable=1;editable=1;locked=0;connectable=1;" parent="HS1r75xV8W8orcubCvqb-277" vertex="1" connectable="0">
          <mxGeometry x="101" y="730" width="450" height="140" as="geometry" />
        </mxCell>
        <mxCell id="HS1r75xV8W8orcubCvqb-239" value="" style="rounded=1;whiteSpace=wrap;html=1;movable=1;resizable=1;rotatable=1;deletable=1;editable=1;locked=0;connectable=1;" parent="HS1r75xV8W8orcubCvqb-240" vertex="1">
          <mxGeometry width="450" height="125" as="geometry" />
        </mxCell>
        <mxCell id="HS1r75xV8W8orcubCvqb-238" value="" style="group;movable=1;resizable=1;rotatable=1;deletable=1;editable=1;locked=0;connectable=1;" parent="HS1r75xV8W8orcubCvqb-240" vertex="1" connectable="0">
          <mxGeometry x="25.961538461538463" y="10.149999999999977" width="398.0769230769231" height="120" as="geometry" />
        </mxCell>
        <mxCell id="HS1r75xV8W8orcubCvqb-236" value="BestEstimator" style="text;html=1;strokeColor=none;fillColor=none;align=center;verticalAlign=middle;whiteSpace=wrap;rounded=0;movable=1;resizable=1;rotatable=1;deletable=1;editable=1;locked=0;connectable=1;" parent="HS1r75xV8W8orcubCvqb-238" vertex="1">
          <mxGeometry x="138.46" y="21.10000000000003" width="51.92307692307693" height="30" as="geometry" />
        </mxCell>
        <mxCell id="HS1r75xV8W8orcubCvqb-237" value="BestParams" style="text;html=1;strokeColor=none;fillColor=none;align=center;verticalAlign=middle;whiteSpace=wrap;rounded=0;movable=1;resizable=1;rotatable=1;deletable=1;editable=1;locked=0;connectable=1;" parent="HS1r75xV8W8orcubCvqb-238" vertex="1">
          <mxGeometry x="138.4646153846154" y="67.34000000000003" width="51.92307692307693" height="30" as="geometry" />
        </mxCell>
        <mxCell id="HS1r75xV8W8orcubCvqb-295" value="" style="group;movable=1;resizable=1;rotatable=1;deletable=1;editable=1;locked=0;connectable=1;" parent="HS1r75xV8W8orcubCvqb-238" vertex="1" connectable="0">
          <mxGeometry x="-26.961538461538453" y="-15.159999999999968" width="110" height="112.5" as="geometry" />
        </mxCell>
        <mxCell id="HS1r75xV8W8orcubCvqb-280" value="" style="whiteSpace=wrap;html=1;aspect=fixed;movable=1;resizable=1;rotatable=1;deletable=1;editable=1;locked=0;connectable=1;" parent="HS1r75xV8W8orcubCvqb-295" vertex="1">
          <mxGeometry x="36.11940298507463" y="39.1304347826087" width="73.02018633540372" height="73.02018633540372" as="geometry" />
        </mxCell>
        <mxCell id="HS1r75xV8W8orcubCvqb-281" value="" style="endArrow=none;html=1;rounded=0;exitX=0.5;exitY=1;exitDx=0;exitDy=0;entryX=0.5;entryY=0;entryDx=0;entryDy=0;movable=1;resizable=1;rotatable=1;deletable=1;editable=1;locked=0;connectable=1;" parent="HS1r75xV8W8orcubCvqb-295" source="HS1r75xV8W8orcubCvqb-280" target="HS1r75xV8W8orcubCvqb-280" edge="1">
          <mxGeometry width="50" height="50" relative="1" as="geometry">
            <mxPoint x="88.65671641791045" y="156.5217391304348" as="sourcePoint" />
            <mxPoint x="174.02985074626864" y="91.30434782608697" as="targetPoint" />
          </mxGeometry>
        </mxCell>
        <mxCell id="HS1r75xV8W8orcubCvqb-283" value="" style="endArrow=none;html=1;rounded=0;exitX=0;exitY=0.5;exitDx=0;exitDy=0;entryX=1;entryY=0.5;entryDx=0;entryDy=0;movable=1;resizable=1;rotatable=1;deletable=1;editable=1;locked=0;connectable=1;" parent="HS1r75xV8W8orcubCvqb-295" source="HS1r75xV8W8orcubCvqb-280" target="HS1r75xV8W8orcubCvqb-280" edge="1">
          <mxGeometry width="50" height="50" relative="1" as="geometry">
            <mxPoint x="49.25373134328358" y="189.1304347826087" as="sourcePoint" />
            <mxPoint x="82.08955223880596" y="156.5217391304348" as="targetPoint" />
          </mxGeometry>
        </mxCell>
        <mxCell id="HS1r75xV8W8orcubCvqb-284" value="&lt;font style=&quot;font-size: 17px;&quot;&gt;TN&lt;/font&gt;" style="text;html=1;strokeColor=none;fillColor=none;align=center;verticalAlign=middle;whiteSpace=wrap;rounded=0;movable=1;resizable=1;rotatable=1;deletable=1;editable=1;locked=0;connectable=1;" parent="HS1r75xV8W8orcubCvqb-295" vertex="1">
          <mxGeometry x="70.59701492537313" y="84.78260869565219" width="39.40298507462686" height="19.56521739130435" as="geometry" />
        </mxCell>
        <mxCell id="HS1r75xV8W8orcubCvqb-285" value="&lt;font style=&quot;font-size: 17px;&quot;&gt;FN&lt;/font&gt;" style="text;html=1;strokeColor=none;fillColor=none;align=center;verticalAlign=middle;whiteSpace=wrap;rounded=0;movable=1;resizable=1;rotatable=1;deletable=1;editable=1;locked=0;connectable=1;" parent="HS1r75xV8W8orcubCvqb-295" vertex="1">
          <mxGeometry x="36.11940298507463" y="84.78260869565219" width="39.40298507462686" height="19.56521739130435" as="geometry" />
        </mxCell>
        <mxCell id="HS1r75xV8W8orcubCvqb-286" value="&lt;font style=&quot;font-size: 17px;&quot;&gt;FP&lt;/font&gt;" style="text;html=1;strokeColor=none;fillColor=none;align=center;verticalAlign=middle;whiteSpace=wrap;rounded=0;movable=1;resizable=1;rotatable=1;deletable=1;editable=1;locked=0;connectable=1;" parent="HS1r75xV8W8orcubCvqb-295" vertex="1">
          <mxGeometry x="70.59701492537313" y="52.17391304347826" width="39.40298507462686" height="19.56521739130435" as="geometry" />
        </mxCell>
        <mxCell id="HS1r75xV8W8orcubCvqb-287" value="&lt;font style=&quot;font-size: 17px;&quot;&gt;TP&lt;/font&gt;" style="text;html=1;strokeColor=none;fillColor=none;align=center;verticalAlign=middle;whiteSpace=wrap;rounded=0;movable=1;resizable=1;rotatable=1;deletable=1;editable=1;locked=0;connectable=1;" parent="HS1r75xV8W8orcubCvqb-295" vertex="1">
          <mxGeometry x="36.11940298507463" y="52.17391304347826" width="39.40298507462686" height="19.56521739130435" as="geometry" />
        </mxCell>
        <mxCell id="HS1r75xV8W8orcubCvqb-289" value="&lt;font style=&quot;font-size: 14px;&quot;&gt;1&lt;/font&gt;" style="text;html=1;align=center;verticalAlign=middle;resizable=1;points=[];autosize=1;strokeColor=none;fillColor=none;movable=1;rotatable=1;deletable=1;editable=1;locked=0;connectable=1;" parent="HS1r75xV8W8orcubCvqb-295" vertex="1">
          <mxGeometry x="45.970149253731336" y="19.56521739130435" width="30" height="30" as="geometry" />
        </mxCell>
        <mxCell id="HS1r75xV8W8orcubCvqb-290" value="&lt;font style=&quot;font-size: 14px;&quot;&gt;0&lt;/font&gt;" style="text;html=1;align=center;verticalAlign=middle;resizable=1;points=[];autosize=1;strokeColor=none;fillColor=none;movable=1;rotatable=1;deletable=1;editable=1;locked=0;connectable=1;" parent="HS1r75xV8W8orcubCvqb-295" vertex="1">
          <mxGeometry x="80.44776119402985" y="19.56521739130435" width="30" height="30" as="geometry" />
        </mxCell>
        <mxCell id="HS1r75xV8W8orcubCvqb-291" value="&lt;font style=&quot;font-size: 14px;&quot;&gt;0&lt;/font&gt;" style="text;html=1;align=center;verticalAlign=middle;resizable=1;points=[];autosize=1;strokeColor=none;fillColor=none;movable=1;rotatable=1;deletable=1;editable=1;locked=0;connectable=1;" parent="HS1r75xV8W8orcubCvqb-295" vertex="1">
          <mxGeometry x="16.41791044776119" y="84.78260869565219" width="30" height="30" as="geometry" />
        </mxCell>
        <mxCell id="HS1r75xV8W8orcubCvqb-292" value="&lt;font style=&quot;font-size: 14px;&quot;&gt;1&lt;/font&gt;" style="text;html=1;align=center;verticalAlign=middle;resizable=1;points=[];autosize=1;strokeColor=none;fillColor=none;movable=1;rotatable=1;deletable=1;editable=1;locked=0;connectable=1;" parent="HS1r75xV8W8orcubCvqb-295" vertex="1">
          <mxGeometry x="16.41791044776119" y="52.17391304347826" width="30" height="30" as="geometry" />
        </mxCell>
        <mxCell id="HS1r75xV8W8orcubCvqb-293" value="&lt;font style=&quot;font-size: 13px;&quot;&gt;Actual&amp;nbsp;&lt;/font&gt;" style="text;html=1;align=center;verticalAlign=middle;resizable=1;points=[];autosize=1;strokeColor=none;fillColor=none;movable=1;rotatable=1;deletable=1;editable=1;locked=0;connectable=1;" parent="HS1r75xV8W8orcubCvqb-295" vertex="1">
          <mxGeometry x="52.537313432835816" width="60" height="30" as="geometry" />
        </mxCell>
        <mxCell id="HS1r75xV8W8orcubCvqb-294" value="&lt;font style=&quot;font-size: 13px;&quot;&gt;Actual&lt;/font&gt;" style="text;html=1;align=center;verticalAlign=middle;resizable=1;points=[];autosize=1;strokeColor=none;fillColor=none;rotation=-90;movable=1;rotatable=1;deletable=1;editable=1;locked=0;connectable=1;" parent="HS1r75xV8W8orcubCvqb-295" vertex="1">
          <mxGeometry x="-9.850746268656716" y="55.434782608695656" width="60" height="30" as="geometry" />
        </mxCell>
        <mxCell id="HS1r75xV8W8orcubCvqb-432" value="" style="group" parent="HS1r75xV8W8orcubCvqb-240" vertex="1" connectable="0">
          <mxGeometry x="268.9992307692306" y="5" width="165.42076923076934" height="120" as="geometry" />
        </mxCell>
        <mxCell id="HS1r75xV8W8orcubCvqb-429" value="" style="rounded=0;whiteSpace=wrap;html=1;" parent="HS1r75xV8W8orcubCvqb-432" vertex="1">
          <mxGeometry x="5.420769230769338" width="160" height="110" as="geometry" />
        </mxCell>
        <mxCell id="HS1r75xV8W8orcubCvqb-233" value="0, 1, 1, 1, 1, 0, 0, 1, 0" style="rounded=0;whiteSpace=wrap;html=1;movable=1;resizable=1;rotatable=1;deletable=1;editable=1;locked=0;connectable=1;" parent="HS1r75xV8W8orcubCvqb-432" vertex="1">
          <mxGeometry x="57.00307692307695" y="50" width="103.84615384615385" height="30" as="geometry" />
        </mxCell>
        <mxCell id="HS1r75xV8W8orcubCvqb-232" value="Y Val" style="text;html=1;strokeColor=none;fillColor=none;align=center;verticalAlign=middle;whiteSpace=wrap;rounded=0;movable=1;resizable=1;rotatable=1;deletable=1;editable=1;locked=0;connectable=1;" parent="HS1r75xV8W8orcubCvqb-432" vertex="1">
          <mxGeometry y="50" width="51.92307692307693" height="30" as="geometry" />
        </mxCell>
        <mxCell id="HS1r75xV8W8orcubCvqb-230" value="Y Pred" style="text;html=1;strokeColor=none;fillColor=none;align=center;verticalAlign=middle;whiteSpace=wrap;rounded=0;movable=1;resizable=1;rotatable=1;deletable=1;editable=1;locked=0;connectable=1;" parent="HS1r75xV8W8orcubCvqb-432" vertex="1">
          <mxGeometry y="10" width="51.92307692307693" height="30" as="geometry" />
        </mxCell>
        <mxCell id="HS1r75xV8W8orcubCvqb-231" value="0, 1, 1, 1, 1, 0, 0, 1, 0" style="rounded=0;whiteSpace=wrap;html=1;movable=1;resizable=1;rotatable=1;deletable=1;editable=1;locked=0;connectable=1;" parent="HS1r75xV8W8orcubCvqb-432" vertex="1">
          <mxGeometry x="57.00307692307695" y="10" width="103.84615384615385" height="30" as="geometry" />
        </mxCell>
        <mxCell id="HS1r75xV8W8orcubCvqb-431" value="Generalization" style="text;html=1;strokeColor=none;fillColor=none;align=center;verticalAlign=middle;whiteSpace=wrap;rounded=0;" parent="HS1r75xV8W8orcubCvqb-432" vertex="1">
          <mxGeometry x="55.42076923076934" y="89" width="60" height="30" as="geometry" />
        </mxCell>
        <mxCell id="HS1r75xV8W8orcubCvqb-241" value="" style="endArrow=none;html=1;rounded=0;strokeWidth=2;movable=1;resizable=1;rotatable=1;deletable=1;editable=1;locked=0;connectable=1;" parent="HS1r75xV8W8orcubCvqb-277" edge="1">
          <mxGeometry width="50" height="50" relative="1" as="geometry">
            <mxPoint x="325.5" y="910" as="sourcePoint" />
            <mxPoint x="325.5" y="855" as="targetPoint" />
          </mxGeometry>
        </mxCell>
        <mxCell id="HS1r75xV8W8orcubCvqb-276" value="&lt;font style=&quot;font-size: 19px;&quot;&gt;Single Trial&lt;/font&gt;" style="text;html=1;strokeColor=none;fillColor=none;align=center;verticalAlign=middle;whiteSpace=wrap;rounded=0;rotation=-90;movable=1;resizable=1;rotatable=1;deletable=1;editable=1;locked=0;connectable=1;" parent="HS1r75xV8W8orcubCvqb-277" vertex="1">
          <mxGeometry x="-52.5" y="455" width="135" height="30" as="geometry" />
        </mxCell>
        <mxCell id="HS1r75xV8W8orcubCvqb-98" value="" style="strokeWidth=2;html=1;shape=mxgraph.flowchart.annotation_2;align=left;labelPosition=right;pointerEvents=1;rotation=-90;movable=1;resizable=1;rotatable=1;deletable=1;editable=1;locked=0;connectable=1;" parent="HS1r75xV8W8orcubCvqb-277" vertex="1">
          <mxGeometry x="269.75" y="195.25" width="85.5" height="255" as="geometry" />
        </mxCell>
        <mxCell id="HS1r75xV8W8orcubCvqb-221" value="" style="group;movable=1;resizable=1;rotatable=1;deletable=1;editable=1;locked=0;connectable=1;" parent="HS1r75xV8W8orcubCvqb-277" vertex="1" connectable="0">
          <mxGeometry x="149" y="408" width="127.5" height="147" as="geometry" />
        </mxCell>
        <mxCell id="HS1r75xV8W8orcubCvqb-213" value="" style="group;movable=1;resizable=1;rotatable=1;deletable=1;editable=1;locked=0;connectable=1;" parent="HS1r75xV8W8orcubCvqb-221" vertex="1" connectable="0">
          <mxGeometry y="20.32258064516129" width="127.49999999999999" height="126.6774193548387" as="geometry" />
        </mxCell>
        <mxCell id="HS1r75xV8W8orcubCvqb-170" value="" style="group;movable=1;resizable=1;rotatable=1;deletable=1;editable=1;locked=0;connectable=1;" parent="HS1r75xV8W8orcubCvqb-213" vertex="1" connectable="0">
          <mxGeometry width="127.49999999999999" height="27.096774193548384" as="geometry" />
        </mxCell>
        <mxCell id="HS1r75xV8W8orcubCvqb-124" value="" style="group;fillColor=#dae8fc;strokeColor=#6c8ebf;container=0;movable=1;resizable=1;rotatable=1;deletable=1;editable=1;locked=0;connectable=1;" parent="HS1r75xV8W8orcubCvqb-170" vertex="1" connectable="0">
          <mxGeometry width="127.49999999999999" height="27.096774193548384" as="geometry" />
        </mxCell>
        <mxCell id="HS1r75xV8W8orcubCvqb-105" value="" style="rounded=0;whiteSpace=wrap;html=1;container=0;movable=1;resizable=1;rotatable=1;deletable=1;editable=1;locked=0;connectable=1;" parent="HS1r75xV8W8orcubCvqb-170" vertex="1">
          <mxGeometry width="127.49999999999999" height="27.096774193548384" as="geometry" />
        </mxCell>
        <mxCell id="HS1r75xV8W8orcubCvqb-111" value="" style="rounded=0;whiteSpace=wrap;html=1;container=0;fillColor=#0D0D0D;movable=1;resizable=1;rotatable=1;deletable=1;editable=1;locked=0;connectable=1;" parent="HS1r75xV8W8orcubCvqb-170" vertex="1">
          <mxGeometry width="12.75" height="27.096774193548384" as="geometry" />
        </mxCell>
        <mxCell id="HS1r75xV8W8orcubCvqb-112" value="" style="rounded=0;whiteSpace=wrap;html=1;container=0;fillColor=#CCCCCC;movable=1;resizable=1;rotatable=1;deletable=1;editable=1;locked=0;connectable=1;" parent="HS1r75xV8W8orcubCvqb-170" vertex="1">
          <mxGeometry x="12.75" width="12.75" height="27.096774193548384" as="geometry" />
        </mxCell>
        <mxCell id="HS1r75xV8W8orcubCvqb-113" value="" style="rounded=0;whiteSpace=wrap;html=1;container=0;fillColor=#CCCCCC;movable=1;resizable=1;rotatable=1;deletable=1;editable=1;locked=0;connectable=1;" parent="HS1r75xV8W8orcubCvqb-170" vertex="1">
          <mxGeometry x="25.5" width="12.75" height="27.096774193548384" as="geometry" />
        </mxCell>
        <mxCell id="HS1r75xV8W8orcubCvqb-114" value="" style="rounded=0;whiteSpace=wrap;html=1;container=0;fillColor=#CCCCCC;movable=1;resizable=1;rotatable=1;deletable=1;editable=1;locked=0;connectable=1;" parent="HS1r75xV8W8orcubCvqb-170" vertex="1">
          <mxGeometry x="89.25" width="12.75" height="27.096774193548384" as="geometry" />
        </mxCell>
        <mxCell id="HS1r75xV8W8orcubCvqb-115" value="" style="rounded=0;whiteSpace=wrap;html=1;container=0;fillColor=#CCCCCC;movable=1;resizable=1;rotatable=1;deletable=1;editable=1;locked=0;connectable=1;" parent="HS1r75xV8W8orcubCvqb-170" vertex="1">
          <mxGeometry x="51" width="12.75" height="27.096774193548384" as="geometry" />
        </mxCell>
        <mxCell id="HS1r75xV8W8orcubCvqb-116" value="" style="rounded=0;whiteSpace=wrap;html=1;container=0;fillColor=#CCCCCC;movable=1;resizable=1;rotatable=1;deletable=1;editable=1;locked=0;connectable=1;" parent="HS1r75xV8W8orcubCvqb-170" vertex="1">
          <mxGeometry x="76.5" width="12.75" height="27.096774193548384" as="geometry" />
        </mxCell>
        <mxCell id="HS1r75xV8W8orcubCvqb-117" value="" style="rounded=0;whiteSpace=wrap;html=1;container=0;fillColor=#CCCCCC;movable=1;resizable=1;rotatable=1;deletable=1;editable=1;locked=0;connectable=1;" parent="HS1r75xV8W8orcubCvqb-170" vertex="1">
          <mxGeometry x="38.25" width="12.75" height="27.096774193548384" as="geometry" />
        </mxCell>
        <mxCell id="HS1r75xV8W8orcubCvqb-118" value="" style="rounded=0;whiteSpace=wrap;html=1;container=0;fillColor=#CCCCCC;movable=1;resizable=1;rotatable=1;deletable=1;editable=1;locked=0;connectable=1;" parent="HS1r75xV8W8orcubCvqb-170" vertex="1">
          <mxGeometry x="114.74999999999999" width="12.75" height="27.096774193548384" as="geometry" />
        </mxCell>
        <mxCell id="HS1r75xV8W8orcubCvqb-119" value="" style="rounded=0;whiteSpace=wrap;html=1;container=0;fillColor=#CCCCCC;movable=1;resizable=1;rotatable=1;deletable=1;editable=1;locked=0;connectable=1;" parent="HS1r75xV8W8orcubCvqb-170" vertex="1">
          <mxGeometry x="102" width="12.75" height="27.096774193548384" as="geometry" />
        </mxCell>
        <mxCell id="HS1r75xV8W8orcubCvqb-120" value="" style="rounded=0;whiteSpace=wrap;html=1;container=0;fillColor=#CCCCCC;movable=1;resizable=1;rotatable=1;deletable=1;editable=1;locked=0;connectable=1;" parent="HS1r75xV8W8orcubCvqb-170" vertex="1">
          <mxGeometry x="63.74999999999999" width="12.75" height="27.096774193548384" as="geometry" />
        </mxCell>
        <mxCell id="HS1r75xV8W8orcubCvqb-190" value="" style="group;movable=1;resizable=1;rotatable=1;deletable=1;editable=1;locked=0;connectable=1;" parent="HS1r75xV8W8orcubCvqb-213" vertex="1" connectable="0">
          <mxGeometry y="40.64516129032258" width="127.49999999999999" height="27.096774193548384" as="geometry" />
        </mxCell>
        <mxCell id="HS1r75xV8W8orcubCvqb-171" value="" style="group;fillColor=#DAE8FC;strokeColor=#6c8ebf;container=0;movable=1;resizable=1;rotatable=1;deletable=1;editable=1;locked=0;connectable=1;" parent="HS1r75xV8W8orcubCvqb-190" vertex="1" connectable="0">
          <mxGeometry width="127.49999999999999" height="27.096774193548384" as="geometry" />
        </mxCell>
        <mxCell id="HS1r75xV8W8orcubCvqb-172" value="" style="group;fillColor=#dae8fc;strokeColor=#6c8ebf;container=0;movable=1;resizable=1;rotatable=1;deletable=1;editable=1;locked=0;connectable=1;" parent="HS1r75xV8W8orcubCvqb-190" vertex="1" connectable="0">
          <mxGeometry width="127.49999999999999" height="27.096774193548384" as="geometry" />
        </mxCell>
        <mxCell id="HS1r75xV8W8orcubCvqb-173" value="" style="rounded=0;whiteSpace=wrap;html=1;container=0;movable=1;resizable=1;rotatable=1;deletable=1;editable=1;locked=0;connectable=1;" parent="HS1r75xV8W8orcubCvqb-190" vertex="1">
          <mxGeometry width="127.49999999999999" height="27.096774193548384" as="geometry" />
        </mxCell>
        <mxCell id="HS1r75xV8W8orcubCvqb-174" value="" style="rounded=0;whiteSpace=wrap;html=1;container=0;fillColor=#CCCCCC;movable=1;resizable=1;rotatable=1;deletable=1;editable=1;locked=0;connectable=1;" parent="HS1r75xV8W8orcubCvqb-190" vertex="1">
          <mxGeometry width="12.75" height="27.096774193548384" as="geometry" />
        </mxCell>
        <mxCell id="HS1r75xV8W8orcubCvqb-175" value="" style="rounded=0;whiteSpace=wrap;html=1;container=0;fillColor=#0D0D0D;movable=1;resizable=1;rotatable=1;deletable=1;editable=1;locked=0;connectable=1;" parent="HS1r75xV8W8orcubCvqb-190" vertex="1">
          <mxGeometry x="12.75" width="12.75" height="27.096774193548384" as="geometry" />
        </mxCell>
        <mxCell id="HS1r75xV8W8orcubCvqb-176" value="" style="rounded=0;whiteSpace=wrap;html=1;container=0;fillColor=#CCCCCC;movable=1;resizable=1;rotatable=1;deletable=1;editable=1;locked=0;connectable=1;" parent="HS1r75xV8W8orcubCvqb-190" vertex="1">
          <mxGeometry x="25.5" width="12.75" height="27.096774193548384" as="geometry" />
        </mxCell>
        <mxCell id="HS1r75xV8W8orcubCvqb-177" value="" style="rounded=0;whiteSpace=wrap;html=1;container=0;fillColor=#CCCCCC;movable=1;resizable=1;rotatable=1;deletable=1;editable=1;locked=0;connectable=1;" parent="HS1r75xV8W8orcubCvqb-190" vertex="1">
          <mxGeometry x="89.25" width="12.75" height="27.096774193548384" as="geometry" />
        </mxCell>
        <mxCell id="HS1r75xV8W8orcubCvqb-178" value="" style="rounded=0;whiteSpace=wrap;html=1;container=0;fillColor=#CCCCCC;movable=1;resizable=1;rotatable=1;deletable=1;editable=1;locked=0;connectable=1;" parent="HS1r75xV8W8orcubCvqb-190" vertex="1">
          <mxGeometry x="51" width="12.75" height="27.096774193548384" as="geometry" />
        </mxCell>
        <mxCell id="HS1r75xV8W8orcubCvqb-179" value="" style="rounded=0;whiteSpace=wrap;html=1;container=0;fillColor=#CCCCCC;movable=1;resizable=1;rotatable=1;deletable=1;editable=1;locked=0;connectable=1;" parent="HS1r75xV8W8orcubCvqb-190" vertex="1">
          <mxGeometry x="76.5" width="12.75" height="27.096774193548384" as="geometry" />
        </mxCell>
        <mxCell id="HS1r75xV8W8orcubCvqb-180" value="" style="rounded=0;whiteSpace=wrap;html=1;container=0;fillColor=#CCCCCC;movable=1;resizable=1;rotatable=1;deletable=1;editable=1;locked=0;connectable=1;" parent="HS1r75xV8W8orcubCvqb-190" vertex="1">
          <mxGeometry x="38.25" width="12.75" height="27.096774193548384" as="geometry" />
        </mxCell>
        <mxCell id="HS1r75xV8W8orcubCvqb-181" value="" style="rounded=0;whiteSpace=wrap;html=1;container=0;fillColor=#CCCCCC;movable=1;resizable=1;rotatable=1;deletable=1;editable=1;locked=0;connectable=1;" parent="HS1r75xV8W8orcubCvqb-190" vertex="1">
          <mxGeometry x="114.74999999999999" width="12.75" height="27.096774193548384" as="geometry" />
        </mxCell>
        <mxCell id="HS1r75xV8W8orcubCvqb-182" value="" style="rounded=0;whiteSpace=wrap;html=1;container=0;fillColor=#CCCCCC;movable=1;resizable=1;rotatable=1;deletable=1;editable=1;locked=0;connectable=1;" parent="HS1r75xV8W8orcubCvqb-190" vertex="1">
          <mxGeometry x="102" width="12.75" height="27.096774193548384" as="geometry" />
        </mxCell>
        <mxCell id="HS1r75xV8W8orcubCvqb-183" value="" style="rounded=0;whiteSpace=wrap;html=1;container=0;fillColor=#CCCCCC;movable=1;resizable=1;rotatable=1;deletable=1;editable=1;locked=0;connectable=1;" parent="HS1r75xV8W8orcubCvqb-190" vertex="1">
          <mxGeometry x="63.74999999999999" width="12.75" height="27.096774193548384" as="geometry" />
        </mxCell>
        <mxCell id="HS1r75xV8W8orcubCvqb-207" value="" style="group;movable=1;resizable=1;rotatable=1;deletable=1;editable=1;locked=0;connectable=1;" parent="HS1r75xV8W8orcubCvqb-213" vertex="1" connectable="0">
          <mxGeometry y="99.58064516129032" width="127.49999999999999" height="27.096774193548384" as="geometry" />
        </mxCell>
        <mxCell id="HS1r75xV8W8orcubCvqb-192" value="" style="group;fillColor=#DAE8FC;strokeColor=#6c8ebf;container=0;movable=1;resizable=1;rotatable=1;deletable=1;editable=1;locked=0;connectable=1;" parent="HS1r75xV8W8orcubCvqb-207" vertex="1" connectable="0">
          <mxGeometry width="127.49999999999999" height="27.096774193548384" as="geometry" />
        </mxCell>
        <mxCell id="HS1r75xV8W8orcubCvqb-193" value="" style="group;fillColor=#dae8fc;strokeColor=#6c8ebf;container=0;movable=1;resizable=1;rotatable=1;deletable=1;editable=1;locked=0;connectable=1;" parent="HS1r75xV8W8orcubCvqb-207" vertex="1" connectable="0">
          <mxGeometry width="127.49999999999999" height="27.096774193548384" as="geometry" />
        </mxCell>
        <mxCell id="HS1r75xV8W8orcubCvqb-194" value="" style="rounded=0;whiteSpace=wrap;html=1;container=0;movable=1;resizable=1;rotatable=1;deletable=1;editable=1;locked=0;connectable=1;" parent="HS1r75xV8W8orcubCvqb-207" vertex="1">
          <mxGeometry width="127.49999999999999" height="27.096774193548384" as="geometry" />
        </mxCell>
        <mxCell id="HS1r75xV8W8orcubCvqb-195" value="" style="rounded=0;whiteSpace=wrap;html=1;container=0;fillColor=#CCCCCC;movable=1;resizable=1;rotatable=1;deletable=1;editable=1;locked=0;connectable=1;" parent="HS1r75xV8W8orcubCvqb-207" vertex="1">
          <mxGeometry width="12.75" height="27.096774193548384" as="geometry" />
        </mxCell>
        <mxCell id="HS1r75xV8W8orcubCvqb-196" value="" style="rounded=0;whiteSpace=wrap;html=1;container=0;fillColor=#CCCCCC;movable=1;resizable=1;rotatable=1;deletable=1;editable=1;locked=0;connectable=1;" parent="HS1r75xV8W8orcubCvqb-207" vertex="1">
          <mxGeometry x="12.75" width="12.75" height="27.096774193548384" as="geometry" />
        </mxCell>
        <mxCell id="HS1r75xV8W8orcubCvqb-197" value="" style="rounded=0;whiteSpace=wrap;html=1;container=0;fillColor=#CCCCCC;movable=1;resizable=1;rotatable=1;deletable=1;editable=1;locked=0;connectable=1;" parent="HS1r75xV8W8orcubCvqb-207" vertex="1">
          <mxGeometry x="25.5" width="12.75" height="27.096774193548384" as="geometry" />
        </mxCell>
        <mxCell id="HS1r75xV8W8orcubCvqb-198" value="" style="rounded=0;whiteSpace=wrap;html=1;container=0;fillColor=#CCCCCC;movable=1;resizable=1;rotatable=1;deletable=1;editable=1;locked=0;connectable=1;" parent="HS1r75xV8W8orcubCvqb-207" vertex="1">
          <mxGeometry x="89.25" width="12.75" height="27.096774193548384" as="geometry" />
        </mxCell>
        <mxCell id="HS1r75xV8W8orcubCvqb-199" value="" style="rounded=0;whiteSpace=wrap;html=1;container=0;fillColor=#CCCCCC;movable=1;resizable=1;rotatable=1;deletable=1;editable=1;locked=0;connectable=1;" parent="HS1r75xV8W8orcubCvqb-207" vertex="1">
          <mxGeometry x="51" width="12.75" height="27.096774193548384" as="geometry" />
        </mxCell>
        <mxCell id="HS1r75xV8W8orcubCvqb-200" value="" style="rounded=0;whiteSpace=wrap;html=1;container=0;fillColor=#CCCCCC;movable=1;resizable=1;rotatable=1;deletable=1;editable=1;locked=0;connectable=1;" parent="HS1r75xV8W8orcubCvqb-207" vertex="1">
          <mxGeometry x="76.5" width="12.75" height="27.096774193548384" as="geometry" />
        </mxCell>
        <mxCell id="HS1r75xV8W8orcubCvqb-201" value="" style="rounded=0;whiteSpace=wrap;html=1;container=0;fillColor=#CCCCCC;movable=1;resizable=1;rotatable=1;deletable=1;editable=1;locked=0;connectable=1;" parent="HS1r75xV8W8orcubCvqb-207" vertex="1">
          <mxGeometry x="38.25" width="12.75" height="27.096774193548384" as="geometry" />
        </mxCell>
        <mxCell id="HS1r75xV8W8orcubCvqb-202" value="" style="rounded=0;whiteSpace=wrap;html=1;container=0;fillColor=#0D0D0D;movable=1;resizable=1;rotatable=1;deletable=1;editable=1;locked=0;connectable=1;" parent="HS1r75xV8W8orcubCvqb-207" vertex="1">
          <mxGeometry x="114.74999999999999" width="12.75" height="27.096774193548384" as="geometry" />
        </mxCell>
        <mxCell id="HS1r75xV8W8orcubCvqb-203" value="" style="rounded=0;whiteSpace=wrap;html=1;container=0;fillColor=#CCCCCC;movable=1;resizable=1;rotatable=1;deletable=1;editable=1;locked=0;connectable=1;" parent="HS1r75xV8W8orcubCvqb-207" vertex="1">
          <mxGeometry x="102" width="12.75" height="27.096774193548384" as="geometry" />
        </mxCell>
        <mxCell id="HS1r75xV8W8orcubCvqb-204" value="" style="rounded=0;whiteSpace=wrap;html=1;container=0;fillColor=#CCCCCC;movable=1;resizable=1;rotatable=1;deletable=1;editable=1;locked=0;connectable=1;" parent="HS1r75xV8W8orcubCvqb-207" vertex="1">
          <mxGeometry x="63.74999999999999" width="12.75" height="27.096774193548384" as="geometry" />
        </mxCell>
        <mxCell id="HS1r75xV8W8orcubCvqb-212" value="&lt;font style=&quot;font-size: 17px;&quot;&gt;....&lt;/font&gt;" style="text;html=1;align=center;verticalAlign=middle;resizable=1;points=[];autosize=1;strokeColor=none;fillColor=none;strokeWidth=4;rotation=90;movable=1;rotatable=1;deletable=1;editable=1;locked=0;connectable=1;" parent="HS1r75xV8W8orcubCvqb-213" vertex="1">
          <mxGeometry x="51" y="79.25806451612902" width="25.5" height="20.32258064516129" as="geometry" />
        </mxCell>
        <mxCell id="HS1r75xV8W8orcubCvqb-223" value="" style="endArrow=none;html=1;rounded=0;strokeWidth=2;movable=1;resizable=1;rotatable=1;deletable=1;editable=1;locked=0;connectable=1;" parent="HS1r75xV8W8orcubCvqb-221" edge="1">
          <mxGeometry width="50" height="50" relative="1" as="geometry">
            <mxPoint x="54.18749999999999" y="-6.774193548387096" as="sourcePoint" />
            <mxPoint x="54.18749999999999" y="20.32258064516129" as="targetPoint" />
          </mxGeometry>
        </mxCell>
        <mxCell id="HS1r75xV8W8orcubCvqb-301" value="Train 80%" style="rounded=1;whiteSpace=wrap;html=1;fillColor=#B3B3B3;" parent="HS1r75xV8W8orcubCvqb-277" vertex="1">
          <mxGeometry x="149" y="340" width="250" height="60" as="geometry" />
        </mxCell>
        <mxCell id="HS1r75xV8W8orcubCvqb-420" value="Generalize 20%" style="rounded=1;whiteSpace=wrap;html=1;fillColor=#d5e8d4;strokeColor=#82b366;" parent="HS1r75xV8W8orcubCvqb-277" vertex="1">
          <mxGeometry x="410" y="340" width="110" height="60" as="geometry" />
        </mxCell>
        <mxCell id="HS1r75xV8W8orcubCvqb-423" value="" style="endArrow=none;html=1;rounded=0;strokeWidth=2;exitX=0.485;exitY=0.961;exitDx=0;exitDy=0;exitPerimeter=0;" parent="HS1r75xV8W8orcubCvqb-277" source="HS1r75xV8W8orcubCvqb-98" edge="1">
          <mxGeometry width="50" height="50" relative="1" as="geometry">
            <mxPoint x="438" y="324" as="sourcePoint" />
            <mxPoint x="430" y="341" as="targetPoint" />
          </mxGeometry>
        </mxCell>
        <mxCell id="HS1r75xV8W8orcubCvqb-433" value="" style="endArrow=classic;html=1;rounded=0;" parent="HS1r75xV8W8orcubCvqb-277" edge="1">
          <mxGeometry width="50" height="50" relative="1" as="geometry">
            <mxPoint x="505" y="401.25" as="sourcePoint" />
            <mxPoint x="505" y="731.25" as="targetPoint" />
          </mxGeometry>
        </mxCell>
        <mxCell id="HS1r75xV8W8orcubCvqb-439" value="" style="rounded=0;whiteSpace=wrap;html=1;fillColor=#A9C4EB;strokeColor=none;" parent="HS1r75xV8W8orcubCvqb-277" vertex="1">
          <mxGeometry x="323" y="510" width="10" height="60" as="geometry" />
        </mxCell>
        <mxCell id="HS1r75xV8W8orcubCvqb-278" value="" style="group;movable=1;resizable=1;rotatable=1;deletable=1;editable=1;locked=0;connectable=1;" parent="1" vertex="1" connectable="0">
          <mxGeometry x="775" y="257.5" width="485" height="292.5" as="geometry" />
        </mxCell>
        <mxCell id="HS1r75xV8W8orcubCvqb-242" value="Weighted-Decision Tree" style="rounded=1;whiteSpace=wrap;html=1;movable=1;resizable=1;rotatable=1;deletable=1;editable=1;locked=0;connectable=1;" parent="HS1r75xV8W8orcubCvqb-278" vertex="1">
          <mxGeometry x="205" width="120" height="35" as="geometry" />
        </mxCell>
        <mxCell id="HS1r75xV8W8orcubCvqb-244" value="Single Trial&amp;nbsp;" style="whiteSpace=wrap;html=1;aspect=fixed;container=0;movable=1;resizable=1;rotatable=1;deletable=1;editable=1;locked=0;connectable=1;" parent="HS1r75xV8W8orcubCvqb-278" vertex="1">
          <mxGeometry x="45" y="97.5" width="80" height="80" as="geometry" />
        </mxCell>
        <mxCell id="HS1r75xV8W8orcubCvqb-251" value="Single Trial&amp;nbsp;" style="whiteSpace=wrap;html=1;aspect=fixed;container=0;movable=1;resizable=1;rotatable=1;deletable=1;editable=1;locked=0;connectable=1;" parent="HS1r75xV8W8orcubCvqb-278" vertex="1">
          <mxGeometry x="135" y="97.5" width="80" height="80" as="geometry" />
        </mxCell>
        <mxCell id="HS1r75xV8W8orcubCvqb-252" value="Single Trial&amp;nbsp;" style="whiteSpace=wrap;html=1;aspect=fixed;container=0;movable=1;resizable=1;rotatable=1;deletable=1;editable=1;locked=0;connectable=1;" parent="HS1r75xV8W8orcubCvqb-278" vertex="1">
          <mxGeometry x="225" y="97.5" width="80" height="80" as="geometry" />
        </mxCell>
        <mxCell id="HS1r75xV8W8orcubCvqb-253" value="Single Trial&amp;nbsp;" style="whiteSpace=wrap;html=1;aspect=fixed;container=0;movable=1;resizable=1;rotatable=1;deletable=1;editable=1;locked=0;connectable=1;" parent="HS1r75xV8W8orcubCvqb-278" vertex="1">
          <mxGeometry x="315" y="97.5" width="80" height="80" as="geometry" />
        </mxCell>
        <mxCell id="HS1r75xV8W8orcubCvqb-254" value="Single Trial&amp;nbsp;" style="whiteSpace=wrap;html=1;aspect=fixed;container=0;movable=1;resizable=1;rotatable=1;deletable=1;editable=1;locked=0;connectable=1;" parent="HS1r75xV8W8orcubCvqb-278" vertex="1">
          <mxGeometry x="405" y="97.5" width="80" height="80" as="geometry" />
        </mxCell>
        <mxCell id="HS1r75xV8W8orcubCvqb-256" value="" style="endArrow=classic;html=1;rounded=0;entryX=0.5;entryY=0;entryDx=0;entryDy=0;movable=1;resizable=1;rotatable=1;deletable=1;editable=1;locked=0;connectable=1;" parent="HS1r75xV8W8orcubCvqb-278" target="HS1r75xV8W8orcubCvqb-244" edge="1">
          <mxGeometry width="50" height="50" relative="1" as="geometry">
            <mxPoint x="205" y="32.5" as="sourcePoint" />
            <mxPoint x="75" y="-77.5" as="targetPoint" />
          </mxGeometry>
        </mxCell>
        <mxCell id="HS1r75xV8W8orcubCvqb-257" value="" style="endArrow=classic;html=1;rounded=0;entryX=0.5;entryY=0;entryDx=0;entryDy=0;exitX=0.25;exitY=1;exitDx=0;exitDy=0;movable=1;resizable=1;rotatable=1;deletable=1;editable=1;locked=0;connectable=1;" parent="HS1r75xV8W8orcubCvqb-278" source="HS1r75xV8W8orcubCvqb-242" target="HS1r75xV8W8orcubCvqb-251" edge="1">
          <mxGeometry width="50" height="50" relative="1" as="geometry">
            <mxPoint x="215" y="42.5" as="sourcePoint" />
            <mxPoint x="95" y="107.5" as="targetPoint" />
          </mxGeometry>
        </mxCell>
        <mxCell id="HS1r75xV8W8orcubCvqb-258" value="" style="endArrow=classic;html=1;rounded=0;entryX=0.5;entryY=0;entryDx=0;entryDy=0;exitX=0.5;exitY=1;exitDx=0;exitDy=0;movable=1;resizable=1;rotatable=1;deletable=1;editable=1;locked=0;connectable=1;" parent="HS1r75xV8W8orcubCvqb-278" source="HS1r75xV8W8orcubCvqb-242" target="HS1r75xV8W8orcubCvqb-252" edge="1">
          <mxGeometry width="50" height="50" relative="1" as="geometry">
            <mxPoint x="245" y="45.5" as="sourcePoint" />
            <mxPoint x="185" y="107.5" as="targetPoint" />
          </mxGeometry>
        </mxCell>
        <mxCell id="HS1r75xV8W8orcubCvqb-259" value="" style="endArrow=classic;html=1;rounded=0;entryX=0.5;entryY=0;entryDx=0;entryDy=0;exitX=0.75;exitY=1;exitDx=0;exitDy=0;movable=1;resizable=1;rotatable=1;deletable=1;editable=1;locked=0;connectable=1;" parent="HS1r75xV8W8orcubCvqb-278" source="HS1r75xV8W8orcubCvqb-242" target="HS1r75xV8W8orcubCvqb-253" edge="1">
          <mxGeometry width="50" height="50" relative="1" as="geometry">
            <mxPoint x="275" y="45.5" as="sourcePoint" />
            <mxPoint x="275" y="107.5" as="targetPoint" />
          </mxGeometry>
        </mxCell>
        <mxCell id="HS1r75xV8W8orcubCvqb-260" value="" style="endArrow=classic;html=1;rounded=0;entryX=0.5;entryY=0;entryDx=0;entryDy=0;movable=1;resizable=1;rotatable=1;deletable=1;editable=1;locked=0;connectable=1;" parent="HS1r75xV8W8orcubCvqb-278" target="HS1r75xV8W8orcubCvqb-254" edge="1">
          <mxGeometry width="50" height="50" relative="1" as="geometry">
            <mxPoint x="325" y="32.5" as="sourcePoint" />
            <mxPoint x="385" y="97.5" as="targetPoint" />
          </mxGeometry>
        </mxCell>
        <mxCell id="HS1r75xV8W8orcubCvqb-261" value="Parallel Training" style="text;html=1;strokeColor=none;fillColor=none;align=center;verticalAlign=middle;whiteSpace=wrap;rounded=0;direction=east;rotation=270;movable=1;resizable=1;rotatable=1;deletable=1;editable=1;locked=0;connectable=1;" parent="HS1r75xV8W8orcubCvqb-278" vertex="1">
          <mxGeometry x="-30" y="122.5" width="90" height="30" as="geometry" />
        </mxCell>
        <mxCell id="HS1r75xV8W8orcubCvqb-268" value="" style="endArrow=classic;html=1;rounded=0;entryX=0;entryY=0.25;entryDx=0;entryDy=0;exitX=0.5;exitY=1;exitDx=0;exitDy=0;movable=1;resizable=1;rotatable=1;deletable=1;editable=1;locked=0;connectable=1;" parent="HS1r75xV8W8orcubCvqb-278" source="HS1r75xV8W8orcubCvqb-244" target="HS1r75xV8W8orcubCvqb-269" edge="1">
          <mxGeometry width="50" height="50" relative="1" as="geometry">
            <mxPoint x="135" y="272.5" as="sourcePoint" />
            <mxPoint x="15" y="337.5" as="targetPoint" />
          </mxGeometry>
        </mxCell>
        <mxCell id="HS1r75xV8W8orcubCvqb-269" value="Avg Results" style="rounded=1;whiteSpace=wrap;html=1;movable=1;resizable=1;rotatable=1;deletable=1;editable=1;locked=0;connectable=1;" parent="HS1r75xV8W8orcubCvqb-278" vertex="1">
          <mxGeometry x="205" y="232.5" width="120" height="60" as="geometry" />
        </mxCell>
        <mxCell id="HS1r75xV8W8orcubCvqb-270" value="" style="endArrow=classic;html=1;rounded=0;entryX=0.25;entryY=0;entryDx=0;entryDy=0;exitX=0.5;exitY=1;exitDx=0;exitDy=0;movable=1;resizable=1;rotatable=1;deletable=1;editable=1;locked=0;connectable=1;" parent="HS1r75xV8W8orcubCvqb-278" source="HS1r75xV8W8orcubCvqb-251" target="HS1r75xV8W8orcubCvqb-269" edge="1">
          <mxGeometry width="50" height="50" relative="1" as="geometry">
            <mxPoint x="95" y="187.5" as="sourcePoint" />
            <mxPoint x="215" y="242.5" as="targetPoint" />
          </mxGeometry>
        </mxCell>
        <mxCell id="HS1r75xV8W8orcubCvqb-273" value="" style="endArrow=classic;html=1;rounded=0;entryX=0.5;entryY=0;entryDx=0;entryDy=0;exitX=0.5;exitY=1;exitDx=0;exitDy=0;movable=1;resizable=1;rotatable=1;deletable=1;editable=1;locked=0;connectable=1;" parent="HS1r75xV8W8orcubCvqb-278" source="HS1r75xV8W8orcubCvqb-252" target="HS1r75xV8W8orcubCvqb-269" edge="1">
          <mxGeometry width="50" height="50" relative="1" as="geometry">
            <mxPoint x="185" y="187.5" as="sourcePoint" />
            <mxPoint x="245" y="242.5" as="targetPoint" />
          </mxGeometry>
        </mxCell>
        <mxCell id="HS1r75xV8W8orcubCvqb-274" value="" style="endArrow=classic;html=1;rounded=0;entryX=0.75;entryY=0;entryDx=0;entryDy=0;exitX=0.5;exitY=1;exitDx=0;exitDy=0;movable=1;resizable=1;rotatable=1;deletable=1;editable=1;locked=0;connectable=1;" parent="HS1r75xV8W8orcubCvqb-278" source="HS1r75xV8W8orcubCvqb-253" target="HS1r75xV8W8orcubCvqb-269" edge="1">
          <mxGeometry width="50" height="50" relative="1" as="geometry">
            <mxPoint x="275" y="187.5" as="sourcePoint" />
            <mxPoint x="275" y="242.5" as="targetPoint" />
          </mxGeometry>
        </mxCell>
        <mxCell id="HS1r75xV8W8orcubCvqb-275" value="" style="endArrow=classic;html=1;rounded=0;exitX=0.5;exitY=1;exitDx=0;exitDy=0;movable=1;resizable=1;rotatable=1;deletable=1;editable=1;locked=0;connectable=1;" parent="HS1r75xV8W8orcubCvqb-278" source="HS1r75xV8W8orcubCvqb-254" edge="1">
          <mxGeometry width="50" height="50" relative="1" as="geometry">
            <mxPoint x="405" y="217.5" as="sourcePoint" />
            <mxPoint x="325" y="242.5" as="targetPoint" />
          </mxGeometry>
        </mxCell>
      </root>
    </mxGraphModel>
  </diagram>
</mxfile>
